<svg id="Layer_1" data-name="Layer 1" xmlns="http://www.w3.org/2000/svg" viewBox="0 0 467.52 488.6"><defs><style>.cls-1{fill:#fff}</style></defs><path class="cls-1" d="M475.21 188.1a25.12 25.12 0 00-11-33.8l-54-27.4a5.16 5.16 0 01-2.8-3.9L398 63.2A25 25 0 00373.21 42a26.93 26.93 0 00-4 .3l-59.8 9.5a5.23 5.23 0 01-4.6-1.5l-42.7-42.9a25.11 25.11 0 00-35.6 0l-42.8 42.8a5.46 5.46 0 01-3.8 1.6 2 2 0 01-.8-.1l-59.8-9.5a26.93 26.93 0 00-4-.3 25 25 0 00-24.8 21.2l-9.4 59.8a5.4 5.4 0 01-2.8 3.9l-54 27.4a24.77 24.77 0 00-12.5 14.6 25.13 25.13 0 001.5 19.2l27.5 53.9a5.1 5.1 0 010 4.8l-27.5 53.9a25.12 25.12 0 0011 33.8l54 27.4a5.16 5.16 0 012.8 3.9l9.4 59.8a25 25 0 0024.8 21.2 26.93 26.93 0 004-.3l59.8-9.5a5.23 5.23 0 014.6 1.5l42.8 42.8a25.11 25.11 0 0035.6 0l42.8-42.8a5.23 5.23 0 014.6-1.5l59.8 9.5a26.93 26.93 0 004 .3 25 25 0 0024.8-21.2l9.4-59.8a5.4 5.4 0 012.8-3.9l54-27.4a24.77 24.77 0 0012.5-14.6 25.13 25.13 0 00-1.5-19.2l-27.5-53.9a5.1 5.1 0 010-4.8zM430 255.8l27.5 53.9a5.31 5.31 0 01.3 4.1 4.9 4.9 0 01-2.7 3.1l-54 27.4a25 25 0 00-13.4 18.5l-9.4 59.8a5.33 5.33 0 01-6.1 4.4l-59.8-9.5a26 26 0 00-4-.3 25 25 0 00-17.8 7.4l-42.5 42.8a5.44 5.44 0 01-7.5 0l-42.8-42.8a25.39 25.39 0 00-17.8-7.4 26.93 26.93 0 00-4 .3l-59.8 9.5a5.33 5.33 0 01-6.1-4.4l-9.4-59.8a25.19 25.19 0 00-13.4-18.5l-54-27.4a5.2 5.2 0 01-2.7-3.1 5.8 5.8 0 01.3-4.1l27.5-53.9a25 25 0 000-22.9L30.91 179a5.31 5.31 0 01-.3-4.1 4.9 4.9 0 012.7-3.1l54-27.4a25 25 0 0013.4-18.5l9.4-59.8a5.33 5.33 0 016.1-4.4L176 71.2a26 26 0 004 .3 25 25 0 0017.8-7.4l42.7-42.7a5.44 5.44 0 017.5 0l42.8 42.8a24.8 24.8 0 0017.8 7.4 26.93 26.93 0 004-.3l59.8-9.5a5.39 5.39 0 016.1 4.4l9.4 59.8a25.19 25.19 0 0013.4 18.5l54 27.4a5.2 5.2 0 012.7 3.1 5.31 5.31 0 01-.3 4.1L430.21 233a24.81 24.81 0 00-.21 22.8z" transform="translate(-10.54)"/><path class="cls-1" d="M322.51 184.7h-44.1v-30.6c0-16.2-4.9-28-14.6-35.1-14.9-11-34.4-5.3-36.6-4.6a9.87 9.87 0 00-6.9 9.4v39.1c0 27.5-32.8 37.2-34.1 37.6a11.92 11.92 0 00-2 .8 19.8 19.8 0 00-11.7-3.9h-28.3a19.53 19.53 0 00-19.5 19.5v97.7a19.53 19.53 0 0019.5 19.5h28.3a19.87 19.87 0 0012.7-4.7 35.37 35.37 0 0022.6 8.2h95.8c23.2 0 38.7-12.8 41.4-34.2l12.9-81.8a7.57 7.57 0 00.1-1.5 35.49 35.49 0 00-35.5-35.4zm-150.2 129.8h-27.8v-97.2h27.8zm153.2-13.8v.3c-.6 4.6-2.1 17-21.8 17h-95.8a15.83 15.83 0 01-15.8-15.8v-82.7c5.6-1.7 48-15.8 48-56.5v-30.8c4-.2 8.7.3 12 2.8 4.3 3.2 6.4 9.6 6.4 19.1v40.5a9.86 9.86 0 009.9 9.9h54a15.68 15.68 0 0115.7 15.1z" transform="translate(-10.54)"/></svg>