<svg fill="none" xmlns="http://www.w3.org/2000/svg" viewBox="0 0 52 64"><path fill-rule="evenodd" clip-rule="evenodd" d="M14 11.2H4a.8.8 0 00-.8.8v48c0 .44.36.8.8.8h44a.8.8 0 00.8-.8V12a.8.8 0 00-.8-.8H14zm25.12-2.4H48a3.2 3.2 0 013.2 3.2v48a3.2 3.2 0 01-3.2 3.2H4A3.2 3.2 0 01.8 60V12A3.2 3.2 0 014 8.8h8.88A9.2 9.2 0 0122 .8h8a9.2 9.2 0 019.12 8zm-2.42 0A6.8 6.8 0 0030 3.2h-8a6.8 6.8 0 00-6.7 5.6h21.4zm-24.7 8A3.2 3.2 0 008.8 20v4a3.2 3.2 0 003.2 3.2h4a3.2 3.2 0 003.2-3.2v-4a3.2 3.2 0 00-3.2-3.2h-4zm-.8 3.2c0-.44.36-.8.8-.8h4c.44 0 .8.36.8.8v4a.8.8 0 01-.8.8h-4a.8.8 0 01-.8-.8v-4zM42 21.2H24v-2.4h18v2.4zm-18 1.6h9v2.4h-9v-2.4zm0 12.4h16v-2.4H24v2.4zm16 1.6H24v2.4h16v-2.4zm-28-6A3.2 3.2 0 008.8 34v4a3.2 3.2 0 003.2 3.2h4a3.2 3.2 0 003.2-3.2v-4a3.2 3.2 0 00-3.2-3.2h-4zm-.8 3.2c0-.44.36-.8.8-.8h4c.44 0 .8.36.8.8v4a.8.8 0 01-.8.8h-4a.8.8 0 01-.8-.8v-4zM36 49.2H24v-2.4h12v2.4zM8.8 48a3.2 3.2 0 013.2-3.2h4a3.2 3.2 0 013.2 3.2v4a3.2 3.2 0 01-3.2 3.2h-4A3.2 3.2 0 018.8 52v-4zm3.2-.8a.8.8 0 00-.8.8v4c0 .44.36.8.8.8h4a.8.8 0 00.8-.8v-4a.8.8 0 00-.8-.8h-4zm30 3.6v2.4H24v-2.4h18z" fill="#fff"/></svg>