<svg xmlns="http://www.w3.org/2000/svg" viewBox="0 0 612 612"><path fill="#fff" d="M612 116.26a250.71 250.71 0 01-72.09 19.77 126.07 126.07 0 0055.19-69.41 253.1 253.1 0 01-79.78 30.48 125.19 125.19 0 00-91.63-39.66c-69.33 0-125.55 56.22-125.55 125.51 0 9.83 1.1 19.43 3.25 28.61-104.32-5.24-196.83-55.22-258.75-131.17a124.6 124.6 0 00-16.98 63.1c0 43.56 22.18 81.99 55.84 104.48a125.56 125.56 0 01-56.87-15.76v1.57c0 60.8 43.29 111.55 100.7 123.1a127.16 127.16 0 01-33.09 4.4c-8.1 0-15.94-.8-23.63-2.33 15.98 49.9 62.33 86.2 117.25 87.2A251.89 251.89 0 0129.95 499.8c-10.14 0-20.12-.62-29.95-1.72a354.88 354.88 0 00192.44 56.48c230.95 0 357.19-191.3 357.19-357.19l-.42-16.25A250.7 250.7 0 00612 116.26z"/></svg>