<svg xmlns="http://www.w3.org/2000/svg" viewBox="0 0 96 96"><path fill="#fff" d="M92.5 65.18c-2.87-3.45-6.26-6.39-9.45-9.51-2.89-2.82-3.07-4.45-.75-7.7 2.53-3.55 5.25-6.96 7.8-10.49 2.4-3.3 4.83-6.58 6.09-10.53.8-2.52.09-3.63-2.49-4.07-.44-.07-.9-.08-1.35-.08l-15.3-.02c-1.88-.02-2.92.8-3.58 2.47a93.59 93.59 0 01-2.9 6.68c-2.43 4.94-5.14 9.71-8.95 13.75-.84.9-1.77 2.02-3.17 1.55-1.75-.64-2.27-3.53-2.24-4.5l-.02-17.65c-.34-2.52-.9-3.65-3.4-4.14H36.91c-2.12 0-3.18.83-4.31 2.15-.66.77-.85 1.27.49 1.52 2.63.5 4.12 2.2 4.51 4.85.63 4.22.6 8.46.23 12.7-.11 1.24-.32 2.47-.81 3.63-.77 1.82-2.01 2.19-3.64 1.07-1.48-1.01-2.51-2.44-3.53-3.87a85.33 85.33 0 01-9.32-17.29c-.72-1.76-1.95-2.83-3.82-2.86-4.59-.07-9.18-.08-13.76 0-2.76.06-3.59 1.4-2.46 3.9 5 11.11 10.56 21.92 17.81 31.76 3.73 5.05 8.01 9.5 13.54 12.67 6.26 3.58 13 4.66 20.11 4.33 3.33-.16 4.33-1.02 4.48-4.34.1-2.27.36-4.52 1.48-6.56 1.1-2 2.76-2.38 4.68-1.14.96.63 1.76 1.42 2.53 2.25 1.87 2.05 3.67 4.16 5.62 6.14 2.43 2.48 5.32 3.95 8.95 3.65h14.05c2.27-.15 3.44-2.92 2.14-5.45a27.06 27.06 0 00-3.38-4.87z"/></svg>