<svg fill="none" xmlns="http://www.w3.org/2000/svg" viewBox="0 0 64 64"><path fill-rule="evenodd" clip-rule="evenodd" d="M55.49 50.02a29.55 29.55 0 01-22.22 11.55c-3.94-1.93-7-5.54-9.22-9.57 4.09-.03 8.44-.61 12.83-1.79 8.37-2.24 15.55-6.29 20.33-11.02.29-.28.57-.57.84-.86.24 2.18.15 4.32-.37 6.26l-.02.06-.01.05c-.16.98-.8 3.05-2.16 5.32zm1.98 1.36a31.86 31.86 0 006.07-24.83c0-.96-.13-1.92-.38-2.86l-.23.06a31.91 31.91 0 00-6.35-12.25l.03-.05-.15-.08A32 32 0 00.22 35.79l-.11.4.17.04c.18 1.37.44 2.7.8 4.02l-.24.06c.25.92.61 1.8 1.07 2.61A32.01 32.01 0 0032.77 64l.26.11.05-.12a31.89 31.89 0 0021.04-8.86l.23.23a21.5 21.5 0 003.12-3.97zm3.66-24.65c-.9-5.05-3.1-9.65-6.21-13.47A35.38 35.38 0 0032.46 10l.24.06a9.89 9.89 0 012.01.8c.4.2.76.36 1.2.52l-.81 2.26c-.57-.2-1.05-.43-1.45-.63l-.2-.1c-.46-.21-.86-.4-1.37-.53a44.63 44.63 0 00-4.96-1.03l-.79.27a32.67 32.67 0 00-4.2 8.28l-2.26-.78c.72-2.1 1.6-4.07 2.62-5.9-.87.43-1.74.88-2.59 1.38A37.35 37.35 0 002.67 35.98c.27 2.04.75 4.02 1.42 5.91 1.76 2.96 5.34 5.29 10.27 6.59 1.8.47 3.75.8 5.8.98a41.18 41.18 0 01-1.3-3.6l2.29-.72a38.65 38.65 0 001.7 4.45c4.2.08 8.76-.45 13.4-1.7 8.05-2.15 14.83-6.01 19.27-10.4.74-.73 1.4-1.46 2-2.2a28.47 28.47 0 00-2.58-6.72l2.12-1.14a31.13 31.13 0 012.23 5.3 12.5 12.5 0 001.84-6zM29.16 8.25a38.67 38.67 0 0121.2.53c-3.7-2.93-8.13-5-12.97-5.9a22.5 22.5 0 00-8.23 5.37zM9.7 12.53a37.32 37.32 0 0112.12-1.65A40.2 40.2 0 002.48 29.86 29.48 29.48 0 019.7 12.53zM60.56 39.8a24.8 24.8 0 00-.46-3.93c.54-.75 1.03-1.51 1.46-2.28a29.55 29.55 0 01-1 6.2zM13.13 9.2a42.2 42.2 0 0112.39-.49c2.1-2.6 4.55-4.72 7.26-6.3L32 2.4a29.48 29.48 0 00-18.87 6.8zm8.18 42.74c1.77 3.53 4.18 6.95 7.3 9.47A29.6 29.6 0 017.14 48.08a25.08 25.08 0 006.6 2.72c2.33.61 4.88 1 7.57 1.14zm21.2-37.63a1.2 1.2 0 00-2.11.3c-.94 2.7-1.66 4.56-2.59 5.86a5.48 5.48 0 01-2.65 2.08 3.53 3.53 0 00-.24-.4 2.5 2.5 0 00-1.93-1.1c-.87-.04-1.7.39-2.44 1.06-.75.68-1.56 1.72-2.44 3.19a6.1 6.1 0 01-5.7 2.93 5.15 5.15 0 01-1.64-.33c.4-.54.6-1.22.35-1.93a2.18 2.18 0 00-1.93-1.4c-1.68-.16-3.37 1.19-4.23 3.82l-.31.95c-.26.77-.48 1.44-.66 2.03-.24.82-.43 1.56-.48 2.24a3.35 3.35 0 00.46 2.08c-.41.18-.85.37-1.18.58-.33.2-.88.62-.98 1.38-.08.7.27 1.26.53 1.61.55.74 1.45 1.62 2.28 2.2.4.27.89.57 1.4.69.25.06.64.1 1.05-.06.47-.19.77-.56.9-.97.04-.12.06-.25.06-.38 0-.3.08-.78.29-1.3.2-.52.48-1 .83-1.34.33-.33.68-.5 1.08-.52.4-.02 1.02.1 1.87.71a1.2 1.2 0 001.82-.57c.12-.31.28-.46.51-.54.29-.1.78-.14 1.55.03 1.56.34 3.76 1.41 6.52 3.28.37.25.86.28 1.25.06.9-.5 2.03-.9 3.25-1.27.6-.19 1.23-.36 1.84-.53l.08-.02c.58-.17 1.16-.33 1.7-.5 1.1-.32 2.22-.72 2.98-1.26.4-.29.82-.7 1.03-1.26.22-.62.13-1.24-.14-1.8-.52-1.07-.24-1.48-.23-1.5.01 0 .05-.05.19-.05.15 0 .44.04.85.28.7.4.95 1.01 1.16 1.58l.02.05c.04.12.1.29.17.42.04.08.1.21.2.34.09.12.27.33.59.45.79.31 1.36-.23 1.48-.36.19-.19.34-.42.46-.63.66-1.11.81-2.7.55-4.14a5.55 5.55 0 00-2.5-3.9 1.2 1.2 0 00-.6-.15c-.85 0-1.34.6-1.54.89l-.09.13c-.07-.19-.15-.4-.22-.65a11.7 11.7 0 01-.4-2.37c-.06-.83 0-1.49.12-1.87v-.01c.25.08.55.23.9.45.31.2.58.4.86.62l.48.36c.21.15.46.32.7.45.22.11.63.3 1.11.25A1.53 1.53 0 0050 23.6c.17-.38.2-.8.2-1.17 0-.3-.1-.58-.3-.8-.97-1.07-2.35-2.35-3.65-3.56l-.48-.44a28.48 28.48 0 01-3.26-3.33zM20.34 27.65h.01zM45.6 28zm-5.83-6.14a19.74 19.74 0 002.2-4.54 69.73 69.73 0 002.65 2.52l.15.14a2 2 0 00-1.57.47c-.4.35-.64.81-.77 1.22a7.63 7.63 0 00-.25 2.79c.06.97.24 1.99.5 2.87.12.44.27.86.44 1.23.17.36.39.74.68 1.04.12.12.26.25.43.36-.65.05-1.25.3-1.74.83-.98 1.08-.87 2.7-.17 4.14l-.11.08c-.4.3-1.17.6-2.29.93-.51.16-1.07.31-1.65.48l-.08.02-1.89.54a22.9 22.9 0 00-3.04 1.13c-2.6-1.7-4.9-2.84-6.77-3.25-1-.22-2-.25-2.87.06-.48.17-.88.43-1.2.77a4.74 4.74 0 00-2.32-.5c-1.1.05-1.99.56-2.64 1.2a6.23 6.23 0 00-1.64 2.98 8.84 8.84 0 01-1.34-1.28l.49-.22.03-.01c.44-.2 1-.44 1.65-.77a1.2 1.2 0 00.06-2.1 1.92 1.92 0 01-.71-.59c-.06-.1-.12-.26-.1-.62.03-.4.15-.93.4-1.72.16-.55.37-1.18.61-1.93l.33-1c.28-.84.6-1.36.89-1.68-.1.28-.12.6-.04.94.15.64.62 1.07 1 1.32.78.53 1.96.85 3.2.92a8.5 8.5 0 007.88-4.1 11.78 11.78 0 011.99-2.64c.42-.38.65-.44.71-.44.02 0 .05.04.09.1.12.16.22.42.28.7a1.2 1.2 0 001.45.94 8.1 8.1 0 005.08-3.33zm9.02.33h-.01.01zm-2.29 8.37a4.88 4.88 0 00-.7-.34c.35-.12.59-.34.74-.5.16-.19.28-.38.36-.52l.02-.03c.31.42.54.98.65 1.61.05.25.07.49.08.72-.3-.33-.67-.66-1.15-.94zm.79-2.05l-.01.02v-.02zm1.53 5.17zm-34.65 4zm-.16.66zm5.01-11.38zm-.17-.49zm14-3.03h.01z" fill="#fff"/></svg>